<?xml version="1.0" encoding="UTF-8"?>
<svg width="6px" height="18px" viewBox="0 0 6 18" version="1.1" xmlns="http://www.w3.org/2000/svg" xmlns:xlink="http://www.w3.org/1999/xlink">
    <!-- Generator: Sketch 47.1 (45422) - http://www.bohemiancoding.com/sketch -->
    <title>drag-vertical</title>
    <desc>Created with Sketch.</desc>
    <defs></defs>
    <g id="Symbols" stroke="none" stroke-width="1" fill="none" fill-rule="evenodd">
        <g id="drag-vertical" fill-rule="nonzero" fill="#474747">
            <g id="drag-vertical-(2)">
                <path d="M0,0 L2,0 L2,2 L0,2 L0,0 L0,0 Z M4,0 L6,0 L6,2 L4,2 L4,0 L4,0 Z M0,4 L2,4 L2,6 L0,6 L0,4 L0,4 Z M4,4 L6,4 L6,6 L4,6 L4,4 L4,4 Z M0,8 L2,8 L2,10 L0,10 L0,8 L0,8 Z M4,8 L6,8 L6,10 L4,10 L4,8 L4,8 Z M0,12 L2,12 L2,14 L0,14 L0,12 L0,12 Z M4,12 L6,12 L6,14 L4,14 L4,12 L4,12 Z M0,16 L2,16 L2,18 L0,18 L0,16 L0,16 Z M4,16 L6,16 L6,18 L4,18 L4,16 Z" id="Shape"></path>
            </g>
        </g>
    </g>
</svg>